<?xml version="1.0" standalone="no"?>
<!DOCTYPE svg PUBLIC "-//W3C//DTD SVG 20010904//EN"
 "http://www.w3.org/TR/2001/REC-SVG-20010904/DTD/svg10.dtd">
<svg version="1.0" xmlns="http://www.w3.org/2000/svg"
 width="700.000000pt" height="700.000000pt" viewBox="0 0 700.000000 700.000000"
 preserveAspectRatio="xMidYMid meet">
<metadata>
Created by potrace 1.14, written by Peter Selinger 2001-2017
</metadata>
<g transform="translate(0.000000,700.000000) scale(0.100000,-0.100000)"
fill="#000000" stroke="none">
<path d="M292 3793 l3 -3208 275 -2 c151 0 282 -2 290 -2 13 -1 15 -39 15
-286 0 -157 3 -285 8 -285 4 0 68 41 142 90 74 50 138 90 143 90 4 0 59 -35
122 -78 64 -42 127 -85 142 -95 l27 -17 0 237 c0 131 0 263 0 293 l1 55 2622
0 2623 0 3 3208 2 3207 -3210 0 -3210 0 2 -3207z m4861 3 c0 -1794 -4 -2620
-11 -2625 -5 -3 -968 -6 -2139 -5 l-2128 1 0 2624 0 2625 2139 0 2139 -1 0
-2619z m967 2615 c10 -2 5 -1351 -5 -1352 -54 -7 -375 -2 -378 6 -3 9 -1 1349
2 1350 3 2 377 -2 381 -4z m5 -2618 l0 -678 -193 -3 c-105 -1 -192 1 -193 5
-3 22 -4 1339 -1 1346 2 4 90 7 195 7 l192 0 0 -677z m-3 -1275 c4 -11 3
-1334 -1 -1348 -2 -10 -373 -3 -380 8 -5 8 -7 1285 -2 1340 1 9 46 12 190 12
142 0 190 -3 193 -12z"/>
<path d="M1205 4760 c-1 -3 -2 -198 -1 -435 l1 -429 118 -1 117 0 1 40 c0 22
0 82 -1 133 l-1 92 40 1 c23 0 67 1 98 1 31 0 76 7 99 15 96 33 179 144 191
256 14 135 -83 281 -212 318 -39 11 -444 19 -450 9z m389 -219 c40 -22 45
-113 9 -153 -13 -14 -32 -18 -89 -18 l-73 0 0 93 0 92 64 -1 c36 0 76 -6 89
-13z"/>
<path d="M2291 4758 c-117 -21 -251 -120 -305 -226 -87 -171 -54 -382 80 -516
240 -240 662 -119 737 212 42 181 -36 371 -193 472 -88 56 -208 78 -319 58z
m151 -213 c101 -32 156 -170 119 -303 -15 -54 -71 -117 -118 -133 -51 -17
-134 -7 -172 20 -18 13 -44 42 -59 65 -24 37 -27 50 -27 131 0 77 3 96 24 133
48 82 138 116 233 87z"/>
<path d="M2947 4758 c-8 -5 -11 -131 -12 -432 0 -234 2 -427 5 -427 23 -6 230
-3 231 3 1 4 2 63 3 131 l1 122 45 3 45 3 74 -131 c40 -71 76 -131 80 -131 23
-5 253 -4 256 1 2 3 -26 58 -62 121 -36 63 -74 129 -84 147 -23 39 -24 58 -5
65 8 3 29 27 46 52 73 107 74 234 3 343 -39 58 -69 82 -139 114 -43 19 -68 21
-262 22 -118 0 -219 -2 -225 -6z m408 -218 c22 -18 35 -75 25 -111 -16 -55
-25 -59 -119 -59 l-87 0 0 88 c1 48 4 90 9 93 15 11 156 2 172 -11z"/>
<path d="M3717 4758 c-8 -4 -12 -38 -12 -105 l1 -98 119 -1 c66 -1 122 -2 125
-3 3 0 5 -148 5 -328 l0 -328 120 0 119 0 1 330 0 330 125 0 124 0 1 98 c0 55
-2 102 -5 105 -7 9 -708 9 -723 0z"/>
<path d="M2200 3686 c-198 -40 -357 -241 -349 -440 12 -266 247 -463 505 -425
198 30 358 203 371 400 21 297 -236 523 -527 465z m167 -217 c18 -6 48 -29 67
-51 84 -97 69 -279 -29 -354 -28 -21 -49 -28 -103 -31 -61 -4 -71 -2 -112 24
-113 74 -130 273 -31 372 56 56 120 68 208 40z"/>
<path d="M4300 3688 c-70 -12 -170 -67 -226 -123 -232 -232 -135 -625 179
-729 54 -18 149 -23 217 -12 160 27 310 177 344 344 54 258 -140 514 -396 525
-40 2 -93 0 -118 -5z m187 -234 c141 -81 118 -365 -34 -415 -140 -46 -266 55
-264 210 1 82 8 109 42 156 59 82 164 102 256 49z"/>
<path d="M1204 3258 l1 -433 118 -1 117 -1 1 41 c0 23 1 95 2 161 l2 120 140
0 140 1 3 97 3 97 -145 0 -144 0 -1 70 c-1 49 3 70 12 71 6 1 86 2 177 3 l165
1 2 103 2 102 -298 0 -298 0 1 -432z"/>
<path d="M2850 3257 l0 -434 314 0 c279 0 315 2 318 16 2 9 4 54 3 101 l0 85
-198 3 -197 2 0 330 0 330 -120 0 -120 0 0 -433z"/>
<path d="M3588 3678 c-3 -11 -3 -830 1 -849 0 -4 54 -6 119 -5 l117 1 0 430 0
430 -116 3 c-88 2 -118 -1 -121 -10z"/>
</g>
</svg>
